<?xml version="1.0" encoding="UTF-8"?>
<svg id="Layer_1" data-name="Layer 1" xmlns="http://www.w3.org/2000/svg" viewBox="0 0 950 950">
  <defs>
    <style>
      .cls-1 {
        fill: #85c441;
      }

      .cls-1, .cls-2, .cls-3, .cls-4 {
        fill-rule: evenodd;
      }

      .cls-2 {
        fill: #928067;
      }

      .cls-3 {
        fill: #127ec6;
      }
    </style>
  </defs>
  <path class="cls-3" d="m422.45,71.47c15.3-22.44,33.04-42.8,52.79-60.61,19.75,17.81,37.49,38.17,52.79,60.61-18.33,8.76-36.02,19.3-52.79,31.55-16.77-12.24-34.45-22.78-52.79-31.54h0Zm222.52,436.45c-2.03,27.08-7.21,53.58-15.41,78.88-26.01-5.55-51.55-14.31-76.02-26.09,11.5-16.75,21.54-34.72,29.94-53.71,20.64,2.22,41.23,2.5,61.49.92h0ZM320.91,52.21c26.01,5.55,51.55,14.31,76.01,26.09-11.49,16.75-21.53,34.72-29.94,53.7-20.65-2.22-41.23-2.5-61.49-.92,2.03-27.08,7.21-53.58,15.41-78.88h0Zm395.53,345.6c11.78,24.47,20.55,50.01,26.09,76.02-25.3,8.2-51.8,13.38-78.88,15.41,1.58-20.25,1.29-40.84-.93-61.49,18.99-8.4,36.96-18.45,53.71-29.94h0ZM207.94,165.18c25.3-8.2,51.8-13.38,78.88-15.41-1.58,20.25-1.29,40.84.93,61.48-18.99,8.4-36.96,18.45-53.71,29.95-11.78-24.46-20.55-50.01-26.09-76.01h0Zm515.34,101.54c22.44,15.3,42.8,33.04,60.61,52.79-17.81,19.75-38.17,37.49-60.61,52.79-8.76-18.33-19.3-36.02-31.55-52.79,12.24-16.77,22.78-34.45,31.54-52.79h0Zm-556.69,52.79c17.81-19.75,38.17-37.49,60.6-52.78,8.76,18.33,19.3,36.01,31.54,52.78-12.24,16.77-22.78,34.46-31.54,52.79-22.44-15.29-42.8-33.03-60.6-52.78h0Zm497.06-169.73c27.08,2.03,53.58,7.21,78.88,15.41-5.55,26.01-14.31,51.55-26.1,76.02-16.75-11.5-34.72-21.54-53.71-29.94,2.22-20.64,2.5-41.23.92-61.49h0ZM207.94,473.83c5.55-26.01,14.31-51.55,26.09-76.01,16.75,11.5,34.72,21.53,53.71,29.94-2.22,20.65-2.5,41.23-.92,61.49-27.08-2.03-53.58-7.21-78.88-15.41h0ZM553.54,78.31c24.47-11.78,50.01-20.55,76.02-26.09,8.2,25.3,13.38,51.8,15.41,78.88-20.25-1.58-40.84-1.29-61.49.93-8.4-18.99-18.45-36.96-29.94-53.71h0Zm-232.63,508.5c-8.2-25.3-13.38-51.8-15.41-78.88,20.25,1.58,40.84,1.29,61.48-.93,8.4,18.99,18.45,36.96,29.95,53.71-24.46,11.78-50.01,20.55-76.01,26.09h0Zm154.32,41.35c-19.75-17.81-37.49-38.17-52.78-60.6,18.33-8.76,36.01-19.3,52.78-31.54,16.77,12.24,34.46,22.78,52.79,31.54-15.29,22.44-33.03,42.8-52.78,60.6Z"/>
  <path class="cls-2" d="m475.23,251.71l13.22,46.01-13.22,18.2v-64.21h0Zm14.52,46.95l-13.22,18.2,61.07-19.84-47.85,1.64h0Zm48.33-.12l-61.07,19.84,21.39,6.95,39.67-26.79h0Zm-40.16,28.31l16.35,44.99-37.74-51.95,21.4,6.95h0Zm15.05,45.93l-37.74-29.45v-22.5l37.74,51.95h0Zm-39.34-29.45l-37.74,29.45,37.74-51.94v22.49h0Zm-39.04,28.52l37.75-51.96-21.4,6.95-16.35,45h0Zm15.86-46.52l21.39-6.95-61.06-19.84,39.67,26.79h0Zm-39.18-28.31l47.85,1.64,13.22,18.2-61.08-19.84h0Zm49.14.7l13.22-46.01v64.21l-13.22-18.2Z"/>
  <path class="cls-4" d="m383.34,782.23c-31.77,0-58.11-26.34-58.11-58.11v-37.72c0-6.22,5.04-11.26,11.26-11.26s11.26,5.04,11.26,11.26v37.72c0,19.42,16.17,35.59,35.59,35.59s35.6-16.17,35.6-35.59v-37.72c0-6.22,5.04-11.26,11.26-11.26s11.26,5.04,11.26,11.26v37.72c0,31.77-26.35,58.11-58.11,58.11h0Zm-195.28,102.64h2.41c.02,2.7.1,4.28.26,4.75.15.46.67,1.07,1.57,1.83.89.76,2.05,1.37,3.47,1.85,1.42.47,2.88.71,4.37.71,2.57,0,4.62-.68,6.17-2.05,1.54-1.36,2.3-3.07,2.3-5.11,0-1.87-.51-3.31-1.53-4.32-1.04-1-3-1.71-5.9-2.13-4.3-.62-7.2-1.3-8.7-2.02-1.5-.73-2.69-1.82-3.55-3.28-.87-1.46-1.3-3.2-1.3-5.24,0-3.42,1.2-6.32,3.62-8.7,2.42-2.38,6.28-3.57,11.57-3.57,2.08,0,3.92.16,5.53.47,1.61.31,3.23.82,4.85,1.53l.28.66c-.3,1.15-.5,2.18-.62,3.12-.12.92-.22,2.53-.32,4.8h-2.38c-.09-2.81-.22-4.37-.41-4.73-.34-.6-1.22-1.23-2.64-1.89-1.41-.66-3.02-1-4.85-1-2.49,0-4.43.61-5.8,1.82-1.38,1.21-2.06,2.77-2.06,4.68,0,1.17.28,2.18.84,3.05.57.87,1.35,1.5,2.37,1.91,1.01.41,3.18.88,6.52,1.41,3.02.46,5.07.9,6.15,1.33,1.76.72,3.11,1.8,4.01,3.26.92,1.45,1.37,3.29,1.37,5.52,0,3.86-1.47,7.07-4.43,9.63-2.95,2.56-6.99,3.84-12.11,3.84-2.27,0-4.34-.21-6.2-.65-1.86-.44-3.78-1.16-5.76-2.16.33-1.27.55-2.42.66-3.47.14-1.44.22-3.38.24-5.82h0Zm31.53-17.31v-1.84c2.97.1,5.58.16,7.83.16,1.43,0,3.44-.06,6.05-.16v1.84c-1.34,0-2.28.11-2.84.35-.19.07-.35.21-.46.37-.16.21-.27.55-.33,1.03-.09.82-.16,3.17-.22,7.04-.04,2.7-.07,5.44-.07,8.22,0,2.29.26,3.97.79,5.05.52,1.07,1.29,1.87,2.3,2.39,1.45.75,3.04,1.12,4.77,1.12,2.34,0,4.14-.39,5.37-1.16,1.24-.77,2.07-1.84,2.5-3.2.42-1.35.63-4.32.63-8.89l-.02-8.1c0-1.82-.1-2.91-.26-3.27-.08-.2-.24-.36-.46-.46-.35-.21-1.42-.37-3.19-.49v-1.84c1.87.1,3.61.16,5.19.16,1.37,0,3.06-.06,5.06-.16v1.84c-1.45,0-2.34.16-2.7.49-.35.32-.57,1.15-.64,2.49-.16,3.26-.24,6.96-.26,11.08,0,2.64-.04,4.36-.11,5.18-.16,2.01-.64,3.73-1.46,5.15-.81,1.43-2.16,2.59-4.07,3.52-1.89.91-4.24,1.37-7.06,1.37s-5.36-.44-7.29-1.31c-1.94-.88-3.32-1.98-4.13-3.31-.82-1.33-1.23-3.29-1.23-5.88l.11-9.83c0-.79-.04-2.8-.11-6.02-.03-1.01-.13-1.69-.33-2.05-.11-.21-.29-.36-.53-.49-.24-.11-1.18-.24-2.81-.39h0Zm35.06,28.83v-1.83c1.78-.07,2.83-.2,3.13-.35.2-.11.35-.31.46-.57.16-.34.26-1.58.31-3.69.08-3.5.13-6.14.13-7.91l-.05-9.25c0-2.44-.08-3.86-.24-4.24-.08-.21-.22-.37-.41-.47-.3-.18-1.4-.35-3.33-.5v-1.84c2.3.08,4.01.11,5.12.11,1.22,0,2.61-.04,4.17-.11,3.36,4.28,7.14,8.94,11.37,13.94,2.82,3.36,5.24,6.13,7.28,8.31v-8.66c0-3.28-.05-6.11-.13-8.48-.06-1.42-.18-2.29-.35-2.6-.08-.18-.24-.3-.48-.37-.23-.07-1.26-.18-3.07-.31v-1.84c1.6.08,3.17.11,4.75.11,2.16,0,4.11-.04,5.86-.11v1.84c-1.63.1-2.61.21-2.95.35-.2.07-.35.18-.46.31-.12.13-.21.3-.27.5-.1.36-.16,1.47-.17,3.37l-.07,8.75-.05,8.8c0,2.36.05,4.72.15,7.09l-.28.3c-1.76-.32-3.01-.53-3.74-.63-3.74-4.15-8.27-9.36-13.57-15.65-2.69-3.17-4.85-5.85-6.49-8.02v8.51c0,2.31.03,5.1.1,8.37.05,2.41.15,3.8.31,4.16.06.16.17.28.33.37.28.16,1.32.3,3.15.44v1.83c-2.36-.1-4.06-.15-5.07-.15-.85,0-2.66.05-5.45.15h0Zm37.19-1.99c1.37-.08,2.21-.22,2.54-.41.21-.15.56-.7,1.03-1.67.89-1.89,2.02-4.52,3.4-7.89l7.74-18.95h3.22l9.88,23.48c1.28,3.04,2.07,4.71,2.37,5,.3.29,1.22.49,2.77.6v1.83c-2.38-.1-4.63-.15-6.73-.15-2.52,0-4.92.05-7.19.15v-1.83c1.74-.07,2.73-.18,3-.3.27-.12.4-.34.4-.67,0-.27-.3-1.22-.91-2.84l-1.45-3.74c-1.81-.03-3.82-.05-6.05-.05-1.94,0-3.7.02-5.29.05l-.96,2.51c-.26.69-.59,1.71-.96,3.07-.09.3-.13.58-.13.83,0,.34.14.57.42.71.29.14,1.31.28,3.08.43v1.83c-1.44-.1-3.21-.15-5.33-.15s-3.64.05-4.83.15v-1.99h0Zm14.34-21.18l-4.61,11.21c1.33.07,2.82.11,4.43.11,1.7,0,3.31-.04,4.86-.11l-4.68-11.21h0Zm20.59,23.17v-1.83c1.78-.07,2.83-.2,3.13-.35.2-.11.35-.31.46-.57.16-.34.26-1.58.31-3.69.08-3.5.13-6.14.13-7.91l-.05-9.25c0-2.44-.08-3.86-.24-4.24-.08-.21-.22-.37-.41-.47-.3-.18-1.4-.35-3.33-.5v-1.84c2.3.08,4.01.11,5.12.11,1.22,0,2.61-.04,4.17-.11,3.36,4.28,7.15,8.94,11.37,13.94,2.82,3.36,5.24,6.13,7.28,8.31v-8.66c0-3.28-.05-6.11-.13-8.48-.06-1.42-.18-2.29-.35-2.6-.08-.18-.24-.3-.48-.37-.23-.07-1.26-.18-3.07-.31v-1.84c1.59.08,3.17.11,4.75.11,2.15,0,4.11-.04,5.86-.11v1.84c-1.63.1-2.61.21-2.95.35-.2.07-.35.18-.46.31-.12.13-.21.3-.27.5-.1.36-.16,1.47-.17,3.37l-.07,8.75-.05,8.8c0,2.36.05,4.72.15,7.09l-.28.3c-1.76-.32-3.01-.53-3.74-.63-3.74-4.15-8.27-9.36-13.57-15.65-2.69-3.17-4.85-5.85-6.49-8.02v8.51c0,2.31.03,5.1.1,8.37.05,2.41.15,3.8.31,4.16.06.16.17.28.33.37.28.16,1.32.3,3.15.44v1.83c-2.36-.1-4.06-.15-5.07-.15-.85,0-2.66.05-5.45.15h0Zm77.1-13.43v-2.21c3.31.07,6.28.11,8.88.11,2.41,0,5-.04,7.79-.11v1.74c-.8.26-1.57.56-2.29.9-.22,1.84-.33,3.4-.33,4.7,0,.93.1,2.77.33,5.52-3.61,1.31-6.63,2.2-9.06,2.66-2.43.47-4.95.7-7.56.7-7.03,0-12.54-1.83-16.52-5.47-3.98-3.66-5.98-8.39-5.98-14.2s2.03-10.76,6.1-14.34c4.06-3.59,9.89-5.39,17.49-5.39,2.68,0,5.24.21,7.7.63,2.46.42,4.8,1.05,7.02,1.91l.24.41c-.52,2.31-.91,5.19-1.18,8.64h-2.29c-.02-1.73-.14-3.26-.35-4.6-1.17-1.34-2.67-2.35-4.5-3.03-1.83-.67-3.99-1.01-6.49-1.01-4.68,0-8.41,1.42-11.18,4.26-2.78,2.84-4.17,6.73-4.17,11.67,0,5.26,1.46,9.51,4.38,12.72,2.92,3.21,6.53,4.82,10.81,4.82,2.28,0,4.7-.56,7.27-1.67.15-1.4.22-2.73.22-3.99,0-2.8-.16-4.35-.49-4.64-.33-.29-2.28-.53-5.85-.74h0Zm20.57-15.4v-1.84c2.97.1,5.58.16,7.83.16,1.43,0,3.44-.06,6.05-.16v1.84c-1.34,0-2.28.11-2.84.35-.19.07-.35.21-.46.37-.16.21-.27.55-.33,1.03-.09.82-.16,3.17-.22,7.04-.04,2.7-.06,5.44-.06,8.22,0,2.29.26,3.97.79,5.05.52,1.07,1.29,1.87,2.3,2.39,1.45.75,3.04,1.12,4.77,1.12,2.34,0,4.14-.39,5.37-1.16,1.24-.77,2.07-1.84,2.5-3.2.42-1.35.63-4.32.63-8.89l-.02-8.1c0-1.82-.1-2.91-.26-3.27-.08-.2-.24-.36-.46-.46-.35-.21-1.42-.37-3.19-.49v-1.84c1.87.1,3.61.16,5.19.16,1.37,0,3.06-.06,5.05-.16v1.84c-1.45,0-2.34.16-2.7.49-.35.32-.57,1.15-.64,2.49-.16,3.26-.24,6.96-.26,11.08,0,2.64-.04,4.36-.11,5.18-.16,2.01-.64,3.73-1.46,5.15-.81,1.43-2.16,2.59-4.07,3.52-1.89.91-4.24,1.37-7.06,1.37s-5.36-.44-7.29-1.31c-1.94-.88-3.32-1.98-4.13-3.31-.82-1.33-1.23-3.29-1.23-5.88l.11-9.83c0-.79-.04-2.8-.11-6.02-.03-1.01-.13-1.69-.33-2.05-.11-.21-.29-.36-.53-.49-.24-.11-1.18-.24-2.81-.39h0Zm35.06,28.83v-1.83c1.78-.07,2.83-.2,3.13-.35.2-.11.35-.31.46-.57.16-.34.26-1.58.31-3.69.08-3.5.13-6.14.13-7.91l-.05-9.25c0-2.44-.08-3.86-.24-4.24-.08-.21-.22-.37-.41-.47-.3-.18-1.4-.35-3.33-.5v-1.84c2.3.08,4.01.11,5.12.11,1.22,0,2.61-.04,4.17-.11,3.36,4.28,7.14,8.94,11.37,13.94,2.82,3.36,5.24,6.13,7.28,8.31v-8.66c0-3.28-.05-6.11-.13-8.48-.06-1.42-.18-2.29-.35-2.6-.08-.18-.24-.3-.48-.37-.23-.07-1.26-.18-3.07-.31v-1.84c1.59.08,3.17.11,4.75.11,2.16,0,4.11-.04,5.86-.11v1.84c-1.63.1-2.61.21-2.95.35-.2.07-.35.18-.46.31-.12.13-.21.3-.27.5-.1.36-.16,1.47-.17,3.37l-.07,8.75-.05,8.8c0,2.36.05,4.72.15,7.09l-.28.3c-1.76-.32-3.01-.53-3.74-.63-3.74-4.15-8.27-9.36-13.57-15.65-2.69-3.17-4.85-5.85-6.49-8.02v8.51c0,2.31.03,5.1.1,8.37.05,2.41.15,3.8.31,4.16.06.16.17.28.33.37.28.16,1.32.3,3.15.44v1.83c-2.36-.1-4.06-.15-5.07-.15-.85,0-2.66.05-5.45.15h0Zm37.06-28.83v-1.84c2.97.1,5.58.16,7.83.16,1.43,0,3.44-.06,6.05-.16v1.84c-1.34,0-2.28.11-2.84.35-.19.07-.35.21-.46.37-.16.21-.27.55-.33,1.03-.09.82-.16,3.17-.22,7.04-.04,2.7-.07,5.44-.07,8.22,0,2.29.26,3.97.79,5.05.52,1.07,1.29,1.87,2.29,2.39,1.45.75,3.04,1.12,4.77,1.12,2.34,0,4.14-.39,5.37-1.16,1.24-.77,2.07-1.84,2.5-3.2.42-1.35.62-4.32.62-8.89l-.02-8.1c0-1.82-.1-2.91-.26-3.27-.08-.2-.24-.36-.46-.46-.36-.21-1.42-.37-3.19-.49v-1.84c1.87.1,3.61.16,5.19.16,1.37,0,3.06-.06,5.05-.16v1.84c-1.45,0-2.34.16-2.7.49-.35.32-.57,1.15-.64,2.49-.16,3.26-.24,6.96-.26,11.08,0,2.64-.04,4.36-.11,5.18-.16,2.01-.64,3.73-1.46,5.15-.81,1.43-2.16,2.59-4.07,3.52-1.89.91-4.24,1.37-7.06,1.37s-5.36-.44-7.29-1.31c-1.94-.88-3.32-1.98-4.13-3.31-.82-1.33-1.23-3.29-1.23-5.88l.11-9.83c0-.79-.04-2.8-.11-6.02-.03-1.01-.13-1.69-.33-2.05-.11-.21-.29-.36-.53-.49-.24-.11-1.18-.24-2.81-.39h0Zm35.06,28.83v-1.83c1.78-.07,2.83-.2,3.13-.35.2-.11.35-.31.46-.57.16-.34.26-1.58.31-3.69.08-3.5.13-6.14.13-7.91l-.05-9.25c0-2.44-.08-3.86-.24-4.24-.08-.21-.22-.37-.41-.47-.3-.18-1.4-.35-3.33-.5v-1.84c2.3.08,4.01.11,5.12.11,1.22,0,2.61-.04,4.17-.11,3.36,4.28,7.15,8.94,11.37,13.94,2.82,3.36,5.24,6.13,7.28,8.31v-8.66c0-3.28-.05-6.11-.13-8.48-.06-1.42-.18-2.29-.35-2.6-.08-.18-.24-.3-.48-.37s-1.26-.18-3.07-.31v-1.84c1.6.08,3.17.11,4.75.11,2.15,0,4.11-.04,5.86-.11v1.84c-1.63.1-2.61.21-2.95.35-.2.07-.35.18-.46.31-.12.13-.21.3-.27.5-.1.36-.16,1.47-.17,3.37l-.07,8.75-.05,8.8c0,2.36.05,4.72.15,7.09l-.28.3c-1.76-.32-3.01-.53-3.74-.63-3.74-4.15-8.27-9.36-13.57-15.65-2.69-3.17-4.85-5.85-6.49-8.02v8.51c0,2.31.03,5.1.1,8.37.05,2.41.15,3.8.31,4.16.06.16.17.28.33.37.28.16,1.32.3,3.15.44v1.83c-2.36-.1-4.06-.15-5.07-.15-.85,0-2.66.05-5.45.15h0Zm57.64-10.77v-1.77c2.66.06,5.03.08,7.11.08,1.92,0,4-.03,6.23-.08v1.4c-.64.2-1.25.45-1.84.72-.18,1.47-.26,2.73-.26,3.77,0,.74.08,2.21.26,4.41-2.88,1.04-5.3,1.76-7.25,2.14-1.94.36-3.95.55-6.04.55-5.62,0-10.03-1.45-13.22-4.38-3.18-2.92-4.78-6.71-4.78-11.35s1.63-8.61,4.88-11.48c3.25-2.87,7.91-4.3,13.99-4.3,2.15,0,4.2.17,6.16.49,1.97.34,3.84.85,5.62,1.54l.2.33c-.42,1.85-.74,4.15-.93,6.9h-1.84c-.02-1.38-.11-2.6-.29-3.67-.93-1.08-2.13-1.89-3.59-2.43-1.46-.53-3.2-.8-5.19-.8-3.75,0-6.72,1.14-8.95,3.4-2.22,2.28-3.33,5.39-3.33,9.34,0,4.22,1.17,7.6,3.51,10.17,2.34,2.57,5.22,3.86,8.65,3.86,1.82,0,3.76-.45,5.81-1.33.12-1.12.18-2.19.18-3.19,0-2.25-.13-3.49-.39-3.72-.26-.23-1.82-.43-4.68-.59h0Zm33.33,10.82v-1.4c1.26-.73,2.15-1.28,2.68-1.64.25-3.2.38-9.21.38-18,0-3.81-.04-7-.12-9.55-.08-2.56-.21-4.02-.37-4.39-.07-.18-.19-.32-.36-.4-.27-.15-1.61-.37-4.01-.66v-2.32c2.75.09,5.9.14,9.48.14l13.48-.14c4.9,0,8.62.63,11.16,1.86,2.55,1.24,4.56,3.13,6.05,5.69,1.49,2.55,2.25,5.64,2.25,9.29,0,4.68-1.17,8.71-3.5,12.11-2.33,3.39-5.18,5.8-8.53,7.24-3.35,1.44-6.93,2.16-10.74,2.16l-10.35-.17c-1.66,0-4.16.06-7.49.2h0Zm11.07-3.37c1.53.25,3.1.38,4.69.38,4.07,0,7.16-.58,9.3-1.74,2.13-1.17,3.85-3.08,5.18-5.73,1.32-2.65,1.98-5.9,1.98-9.77,0-5.08-1.31-8.95-3.94-11.62-2.31-2.36-6.09-3.54-11.34-3.54-1.13,0-3.09.08-5.87.27l-.22,17.05c0,7.18.07,12.08.22,14.7h0Zm32.82-25.51v-1.84c2.92.12,5.26.18,7.04.18,2.57,0,5.19-.06,7.83-.18v1.84c-.47,0-1.31.07-2.52.2-.49.06-.82.15-.99.29-.17.13-.28.31-.35.54-.13.44-.2,2.04-.21,4.81l-.05,8.87-.07,6.7c-.03,3.61-.08,5.77-.17,6.49-.23,1.79-.87,3.44-1.89,4.96-1.03,1.51-2.47,2.86-4.32,4.07-1.4.89-2.75,1.33-4.07,1.33-.44,0-.97-.1-1.59-.29.07-1.01.11-1.68.11-2.03s-.04-1.02-.11-1.97l.52-.24c.92,1.03,1.96,1.53,3.12,1.53.59,0,1.03-.16,1.33-.49.31-.33.5-1.25.6-2.77.14-2.34.21-5.28.21-8.81l-.05-16.88c0-2.88-.06-4.6-.2-5.16-.08-.34-.26-.59-.51-.73-.25-.14-1.48-.28-3.68-.43h0Zm17.65,26.84c1.37-.08,2.21-.22,2.54-.41.21-.15.56-.7,1.03-1.67.89-1.89,2.02-4.52,3.4-7.89l7.74-18.95h3.22l9.88,23.48c1.28,3.04,2.07,4.71,2.37,5,.3.29,1.22.49,2.77.6v1.83c-2.38-.1-4.63-.15-6.73-.15-2.52,0-4.92.05-7.19.15v-1.83c1.74-.07,2.73-.18,3-.3.27-.12.4-.34.4-.67,0-.27-.3-1.22-.91-2.84l-1.45-3.74c-1.81-.03-3.82-.05-6.05-.05-1.94,0-3.7.02-5.29.05l-.96,2.51c-.26.69-.59,1.71-.96,3.07-.09.3-.13.58-.13.83,0,.34.14.57.42.71.29.14,1.31.28,3.08.43v1.83c-1.44-.1-3.21-.15-5.33-.15s-3.64.05-4.83.15v-1.99h0Zm14.34-21.18l-4.61,11.21c1.33.07,2.82.11,4.43.11,1.7,0,3.31-.04,4.86-.11l-4.68-11.21h0Zm26.61,23.17v-1.83c.83,0,1.7-.07,2.6-.22.42-.07.72-.2.89-.36.18-.17.31-.48.39-.92.1-.63.19-2.93.26-6.91.05-2.83.06-5.71.06-8.66,0-5.78-.02-8.73-.06-8.84-.04-.11-.55-.17-1.54-.17-2.02,0-3.77.06-5.22.18-.85.07-1.32.15-1.44.22-.1.06-.19.2-.24.38-.07.18-.19,1.46-.37,3.83h-1.88c.03-2.78-.05-5.19-.24-7.19l.24-.18c4.59.21,9.06.31,13.4.31s9.17-.1,14.53-.31l.24.35c-.27,2-.48,4.33-.59,7.01h-1.82c-.13-2.43-.26-3.75-.39-3.95-.1-.16-.34-.27-.7-.33-1.17-.2-3.48-.29-6.95-.29-.29,0-.47.05-.52.13-.07.1-.09.49-.09,1.16l-.13,14.69c0,4.26.04,6.87.11,7.84.07.97.25,1.55.52,1.75.2.13,1.33.29,3.43.47v1.83c-2.14-.1-4.41-.15-6.82-.15-3.16,0-5.73.05-7.7.15h0Zm23.94,0v-1.83c2-.1,3.14-.27,3.4-.5.27-.23.43-.81.49-1.73.1-1.92.15-5.5.15-10.75,0-2.01-.03-4.92-.08-8.74-.03-2.61-.08-4.04-.18-4.3-.08-.25-.24-.44-.46-.55-.32-.17-1.43-.31-3.32-.42v-1.84c3,.12,5.3.18,6.88.18,2.74,0,5.21-.06,7.43-.18v1.84c-1.99.11-3.11.27-3.36.47-.25.2-.42.65-.49,1.37-.13,1.4-.2,4.23-.2,8.51,0,5.68.03,9.64.07,11.87.05,2.24.18,3.57.4,3.99.08.19.27.33.55.45.29.11,1.3.22,3.03.34v1.83l-2.58-.06c-1.63-.06-3.09-.08-4.36-.08l-7.37.15h0Zm-364.79,41.95v-.95c.77-.46,1.34-.87,1.75-1.25.16-1.85.24-5.93.24-12.26,0-4.58-.07-7.83-.2-9.73-.07-1.03-.21-1.63-.42-1.81-.3-.27-1.31-.44-3.05-.52v-1.69l3.86.08,2.95.06c.9,0,2.22-.03,3.98-.1,1.7-.07,2.92-.1,3.66-.1,2.97,0,5.1.5,6.39,1.5,1.29.99,1.93,2.36,1.93,4.09s-.63,3.23-1.91,4.36c-1.27,1.12-3.07,1.93-5.39,2.41v.17c2.39.24,4.06.6,5.02,1.08.97.48,1.74,1.23,2.33,2.25.59,1.01.88,2.17.88,3.48,0,1.59-.49,3.1-1.45,4.52-.97,1.42-2.26,2.5-3.86,3.26-1.6.75-3.85,1.13-6.76,1.13-.58,0-1.44-.02-2.59-.06-1.07-.04-1.95-.06-2.63-.06-.77,0-2.34.05-4.73.14h0Zm7.7-16.58h1.05c2.26,0,3.85-.41,4.77-1.23.92-.82,1.38-2.1,1.38-3.84,0-1.52-.37-2.65-1.12-3.37-.74-.72-1.96-1.08-3.66-1.08-.63,0-1.4.05-2.31.16-.08,4.12-.12,6.63-.12,7.56l.02,1.81h0Zm.04,14.29c.77.2,1.51.3,2.19.3,1.91,0,3.37-.54,4.38-1.63,1.02-1.09,1.53-2.7,1.53-4.81,0-1.38-.23-2.51-.69-3.39-.47-.88-1.1-1.53-1.91-1.96-.81-.43-1.96-.65-3.46-.65l-2.03.02v.52l-.04,5.21.04,5.26v1.13h0Zm17.64.8c1.01-.06,1.63-.16,1.87-.3.16-.11.41-.51.76-1.23.65-1.39,1.49-3.33,2.5-5.8l5.69-13.94h2.37l7.27,17.27c.94,2.24,1.52,3.46,1.74,3.68.22.21.9.36,2.04.44v1.34c-1.75-.08-3.4-.11-4.95-.11-1.85,0-3.62.03-5.29.11v-1.34c1.28-.05,2.01-.13,2.21-.22.2-.09.3-.25.3-.49,0-.2-.22-.9-.67-2.09l-1.06-2.75c-1.33-.02-2.81-.03-4.45-.03-1.43,0-2.72.01-3.89.03l-.71,1.85c-.19.51-.43,1.26-.71,2.26-.07.22-.1.42-.1.61,0,.25.1.42.31.52.21.1.96.21,2.26.32v1.34c-1.06-.08-2.36-.11-3.92-.11s-2.68.03-3.55.11v-1.46h0Zm10.54-15.58l-3.39,8.25c.98.05,2.07.08,3.26.08,1.25,0,2.44-.03,3.57-.08l-3.44-8.25h0Zm15.15,17.04v-1.34c1.31-.05,2.08-.14,2.31-.26.14-.08.26-.23.34-.42.12-.25.19-1.16.23-2.72.06-2.57.1-4.51.1-5.82l-.03-6.81c0-1.8-.06-2.84-.18-3.12-.06-.16-.16-.27-.3-.35-.22-.13-1.03-.25-2.45-.37v-1.35c1.69.05,2.95.08,3.77.08.9,0,1.92-.03,3.07-.08,2.47,3.15,5.25,6.57,8.36,10.25,2.07,2.47,3.86,4.51,5.36,6.11v-6.37c0-2.41-.03-4.49-.1-6.24-.05-1.04-.13-1.68-.26-1.91-.06-.13-.18-.22-.35-.27-.17-.05-.93-.13-2.26-.23v-1.35c1.17.05,2.33.08,3.49.08,1.58,0,3.03-.03,4.31-.08v1.35c-1.2.08-1.92.16-2.17.25-.14.05-.25.13-.34.23-.09.1-.15.22-.2.37-.08.26-.12,1.08-.12,2.48l-.05,6.44-.03,6.48c0,1.73.03,3.47.11,5.21l-.21.22c-1.3-.23-2.22-.39-2.75-.47-2.75-3.05-6.08-6.89-9.98-11.51-1.98-2.33-3.57-4.3-4.77-5.9v6.26c0,1.7.02,3.75.08,6.15.04,1.77.11,2.79.23,3.06.04.12.12.21.24.27.21.12.97.22,2.32.32v1.34c-1.74-.08-2.98-.11-3.73-.11-.63,0-1.96.03-4.01.11h0Zm28.62,0v-.82c.74-.43,1.26-.75,1.58-.97.14-1.89.22-5.42.22-10.59,0-2.24-.02-4.12-.07-5.62-.05-1.51-.12-2.37-.22-2.59-.04-.1-.11-.19-.21-.24-.16-.08-.95-.21-2.37-.38v-1.37c1.62.05,3.48.08,5.58.08l7.93-.08c2.88,0,5.07.36,6.56,1.09,1.5.73,2.68,1.85,3.56,3.35.88,1.5,1.32,3.32,1.32,5.47,0,2.75-.69,5.13-2.06,7.12-1.37,1.99-3.05,3.41-5.02,4.26-1.97.84-4.08,1.27-6.32,1.27l-6.09-.1c-.97,0-2.44.03-4.4.11h0Zm6.51-1.98c.9.15,1.82.23,2.76.23,2.39,0,4.21-.34,5.47-1.03,1.26-.69,2.27-1.81,3.05-3.37.77-1.56,1.17-3.48,1.17-5.75,0-2.99-.77-5.27-2.31-6.83-1.37-1.39-3.59-2.09-6.68-2.09-.67,0-1.82.06-3.46.17l-.13,10.03c0,4.23.05,7.11.13,8.65h0Zm19.55-19.23v-1.35c2.18.08,4.1.12,5.76.12,1.05,0,2.53-.04,4.45-.12v1.35c-.99,0-1.68.08-2.09.25-.14.05-.25.15-.34.27-.12.15-.2.41-.24.75-.07.6-.12,2.33-.16,5.18-.03,1.98-.05,4-.05,6.04,0,1.69.19,2.92.58,3.71.38.79.95,1.37,1.69,1.76,1.07.55,2.24.82,3.5.82,1.72,0,3.05-.29,3.95-.85.91-.57,1.52-1.35,1.84-2.35.31-.99.46-3.18.46-6.54v-5.95c-.02-1.34-.09-2.14-.21-2.41-.06-.15-.18-.27-.34-.34-.26-.15-1.04-.27-2.35-.36v-1.35c1.38.08,2.65.12,3.82.12,1.01,0,2.25-.04,3.72-.12v1.35c-1.06,0-1.72.12-1.99.36-.26.23-.42.84-.47,1.83-.12,2.4-.18,5.12-.19,8.15,0,1.94-.03,3.21-.08,3.81-.12,1.48-.47,2.74-1.08,3.79-.6,1.05-1.59,1.91-2.99,2.59-1.39.67-3.12,1.01-5.19,1.01s-3.94-.32-5.36-.96c-1.43-.64-2.44-1.45-3.04-2.43-.6-.98-.91-2.42-.91-4.32l.08-7.23c0-.58-.03-2.06-.08-4.43-.02-.74-.1-1.24-.24-1.51-.08-.15-.21-.27-.39-.36-.18-.08-.86-.18-2.06-.29h0Zm25.79,21.2v-1.34c1.31-.05,2.08-.14,2.3-.26.14-.08.26-.23.34-.42.12-.25.19-1.16.23-2.72.06-2.57.1-4.51.1-5.82l-.03-6.81c0-1.8-.06-2.84-.18-3.12-.06-.16-.17-.27-.3-.35-.22-.13-1.03-.25-2.45-.37v-1.35c1.69.05,2.95.08,3.77.08.9,0,1.92-.03,3.07-.08,2.47,3.15,5.25,6.57,8.36,10.25,2.07,2.47,3.86,4.51,5.36,6.11v-6.37c0-2.41-.03-4.49-.1-6.24-.05-1.04-.13-1.68-.26-1.91-.06-.13-.18-.22-.35-.27-.17-.05-.93-.13-2.26-.23v-1.35c1.17.05,2.33.08,3.49.08,1.59,0,3.03-.03,4.31-.08v1.35c-1.2.08-1.92.16-2.17.25-.14.05-.25.13-.34.23-.09.1-.15.22-.2.37-.08.26-.12,1.08-.12,2.48l-.05,6.44-.03,6.48c0,1.73.03,3.47.11,5.21l-.21.22c-1.3-.23-2.22-.39-2.75-.47-2.75-3.05-6.08-6.89-9.98-11.51-1.98-2.33-3.57-4.3-4.77-5.9v6.26c0,1.7.02,3.75.08,6.15.03,1.77.11,2.79.23,3.06.04.12.12.21.24.27.21.12.97.22,2.32.32v1.34c-1.74-.08-2.98-.11-3.73-.11-.62,0-1.96.03-4.01.11h0Zm42.39-7.92v-1.3c1.96.04,3.7.06,5.23.06,1.41,0,2.94-.02,4.58-.06v1.03c-.47.15-.92.33-1.35.53-.13,1.08-.19,2.01-.19,2.77,0,.54.06,1.63.19,3.24-2.12.77-3.9,1.3-5.33,1.57-1.43.27-2.91.41-4.45.41-4.14,0-7.37-1.07-9.72-3.23-2.34-2.15-3.51-4.93-3.51-8.35s1.2-6.33,3.59-8.44c2.39-2.11,5.82-3.16,10.29-3.16,1.58,0,3.09.12,4.54.36,1.45.25,2.83.62,4.13,1.13l.14.24c-.31,1.36-.54,3.05-.69,5.08h-1.35c-.01-1.01-.08-1.91-.21-2.7-.69-.8-1.56-1.39-2.64-1.79-1.08-.39-2.35-.59-3.82-.59-2.76,0-4.95.84-6.59,2.5-1.63,1.67-2.45,3.97-2.45,6.87,0,3.1.86,5.59,2.58,7.48,1.72,1.89,3.84,2.84,6.36,2.84,1.34,0,2.77-.33,4.27-.98.09-.82.13-1.61.13-2.35,0-1.65-.1-2.57-.29-2.74-.19-.17-1.34-.32-3.44-.43h0Zm-339.91-110.76v-1.69c2.73.1,5.13.14,7.2.14,1.31,0,3.17-.05,5.56-.14v1.69c-1.23,0-2.1.11-2.61.32-.17.07-.31.18-.42.34-.15.19-.25.5-.3.95-.08.75-.14,2.9-.2,6.47-.04,2.48-.06,4.99-.06,7.56,0,2.1.24,3.64.72,4.63.49.98,1.19,1.72,2.11,2.2,1.34.68,2.8,1.02,4.38,1.02,2.15,0,3.8-.36,4.94-1.06,1.14-.71,1.91-1.69,2.29-2.94.39-1.25.58-3.97.58-8.18l-.02-7.44c-.01-1.67-.09-2.68-.24-3.02-.08-.19-.22-.33-.42-.42-.32-.19-1.3-.34-2.94-.45v-1.69c1.73.1,3.32.14,4.78.14,1.26,0,2.81-.05,4.64-.14v1.69c-1.32,0-2.15.15-2.48.45-.33.3-.52,1.06-.59,2.29-.15,3-.23,6.39-.24,10.19,0,2.43-.03,4.01-.1,4.76-.15,1.85-.6,3.43-1.34,4.73-.76,1.31-2,2.38-3.74,3.23-1.74.84-3.91,1.26-6.5,1.26s-4.93-.4-6.71-1.21c-1.78-.8-3.05-1.82-3.8-3.05-.75-1.22-1.12-3.02-1.12-5.39l.1-9.05c0-.72-.03-2.57-.1-5.52-.03-.93-.12-1.56-.3-1.89-.1-.18-.27-.33-.49-.44-.22-.11-1.08-.23-2.58-.36h0Zm31.96,26.48v-1.34c1.31-.05,2.08-.14,2.3-.26.14-.08.26-.23.34-.42.12-.25.19-1.16.23-2.72.06-2.57.1-4.51.1-5.82l-.03-6.81c0-1.8-.06-2.84-.18-3.12-.06-.16-.17-.27-.3-.35-.22-.13-1.03-.25-2.45-.37v-1.35c1.69.05,2.95.08,3.77.08.9,0,1.92-.03,3.07-.08,2.47,3.15,5.25,6.57,8.36,10.26,2.07,2.47,3.85,4.51,5.36,6.11v-6.37c0-2.41-.03-4.49-.1-6.24-.05-1.04-.13-1.68-.26-1.91-.06-.13-.18-.22-.35-.27-.17-.06-.93-.13-2.26-.23v-1.35c1.17.05,2.33.08,3.49.08,1.59,0,3.03-.03,4.31-.08v1.35c-1.2.08-1.92.16-2.17.25-.14.05-.25.13-.34.23-.09.1-.15.22-.2.37-.08.26-.12,1.08-.12,2.48l-.05,6.44-.03,6.48c0,1.73.03,3.47.11,5.21l-.21.22c-1.3-.23-2.22-.39-2.75-.47-2.75-3.05-6.08-6.89-9.98-11.51-1.98-2.33-3.57-4.3-4.77-5.9v6.26c0,1.7.02,3.75.08,6.15.04,1.77.11,2.79.23,3.06.04.12.12.21.24.27.21.12.97.22,2.32.32v1.34c-1.74-.08-2.98-.11-3.73-.11-.62,0-1.96.03-4.01.11h0Zm27.49,0v-1.34c1.48-.08,2.31-.2,2.5-.37.2-.17.32-.6.36-1.28.07-1.41.11-4.05.11-7.91,0-1.48-.02-3.62-.06-6.43-.02-1.92-.06-2.97-.13-3.16-.06-.19-.18-.32-.34-.41-.23-.12-1.05-.23-2.44-.31v-1.35c2.21.09,3.9.13,5.06.13,2.02,0,3.84-.04,5.47-.13v1.35c-1.46.08-2.28.2-2.47.34-.19.14-.31.48-.36,1.01-.1,1.03-.14,3.11-.14,6.26,0,4.18.02,7.09.05,8.73.03,1.65.13,2.63.3,2.94.06.14.2.25.4.33.21.08.95.16,2.23.25v1.34l-1.9-.05c-1.2-.04-2.27-.06-3.21-.06l-5.42.11h0Zm11.88-21.2v-1.35c2.04.08,3.9.12,5.59.12,1.5,0,3.15-.04,4.94-.12v1.35c-1.24.08-1.98.19-2.23.3-.24.12-.36.29-.36.54,0,.31.45,1.58,1.35,3.79l4.55,11.09,3.63-8.97c1.35-3.3,2.01-5.28,2.01-5.95,0-.25-.11-.43-.34-.53-.23-.11-1.01-.2-2.34-.27v-1.35c1.96.08,3.27.12,3.94.12.7,0,1.94-.04,3.73-.12v1.35c-1.08.11-1.71.23-1.88.38-.26.21-.88,1.44-1.87,3.7l-4.94,11.83c-1,2.34-1.72,4.21-2.15,5.61h-2.35l-5.69-13.63c-1.3-3.11-2.22-5.21-2.74-6.32-.3-.66-.56-1.06-.78-1.2-.22-.14-.91-.27-2.06-.38h0Zm27.6,21.2v-.86c.57-.26,1.09-.56,1.56-.9.21-1.67.32-5.19.32-10.55,0-3.66-.04-6.08-.12-7.27-.03-.63-.14-1.04-.33-1.2-.19-.16-.98-.31-2.39-.43v-1.35c2.53.1,4.53.14,6,.14l8.86-.1c.93,0,1.77.04,2.52.12l.11.17c-.23,1.17-.41,2.72-.51,4.66h-1.27c-.05-1.56-.12-2.4-.19-2.51-.07-.1-.32-.21-.73-.3-.88-.19-2.25-.29-4.08-.29-.9,0-1.95.03-3.15.11-.14,3.31-.22,5.95-.24,7.91,1.15.08,2.22.12,3.23.12,1.49,0,2.38-.05,2.68-.14.18-.07.31-.23.38-.47.07-.2.14-.87.23-2.03h1.39c-.06,1.81-.08,2.99-.08,3.54l.08,3.61h-1.39c-.08-1.4-.17-2.21-.29-2.43-.06-.12-.21-.22-.43-.27-.54-.12-1.74-.17-3.62-.17-.59,0-1.27.03-2.07.1-.02.57-.03,1.15-.03,1.74,0,3.07.06,5.42.17,7.07l3.18.05c1.81,0,3.46-.1,4.97-.29.27-.99.53-2.11.77-3.36h1.33c-.25,1.89-.39,3.7-.43,5.43-.97.11-1.91.16-2.81.16-.59,0-1.76-.02-3.49-.07-1.62-.04-3.11-.06-4.47-.06-1.78,0-3.67.03-5.66.11h0Zm19.06,0v-1.34c1.24-.11,1.95-.21,2.13-.31.12-.06.21-.16.26-.31.11-.25.19-1.12.23-2.6.05-2.3.08-4.1.08-5.42,0-1.78-.03-4.04-.07-6.79-.04-2.05-.14-3.3-.3-3.77-.05-.14-.13-.25-.26-.32-.17-.11-.86-.23-2.07-.36v-1.35c2.22.09,3.65.13,4.29.13l8.05-.14c1.74,0,3.02.17,3.81.51.8.34,1.43.88,1.9,1.62.47.75.7,1.63.7,2.63,0,1.28-.37,2.41-1.12,3.38-.75.97-2.04,1.83-3.88,2.58l3.42,5.16,2.67,3.96c.51.64.88,1.03,1.13,1.17.25.13.65.21,1.21.22v1.23h-.95c-2.72.03-4.47.07-5.26.11-.93-1.49-2.32-3.65-4.18-6.48l-3.31-5.04c.1-.18.18-.37.24-.58.43.06.75.08.95.08.99,0,1.98-.41,2.94-1.21.96-.8,1.45-1.96,1.45-3.44,0-1.3-.38-2.31-1.15-3.02-.76-.72-1.9-1.08-3.42-1.08-.48,0-1.14.03-1.96.11l-.11,4.74-.15,6.02c0,1.36.05,3.1.16,5.23.08,1.6.17,2.49.25,2.68.07.14.19.25.36.34.23.13.95.23,2.19.3v1.34c-1.93-.08-3.64-.11-5.13-.11-1.59,0-3.29.03-5.11.11h0Zm24.92-6.8h1.41c.01,1.58.06,2.52.16,2.79.09.27.4.63.92,1.08.53.45,1.21.8,2.04,1.08.84.27,1.69.42,2.57.42,1.51,0,2.72-.41,3.63-1.21.91-.8,1.36-1.81,1.36-3,0-1.1-.3-1.95-.91-2.55-.61-.59-1.76-1-3.47-1.25-2.53-.37-4.23-.76-5.12-1.19-.89-.42-1.58-1.07-2.09-1.93-.51-.86-.76-1.89-.76-3.09,0-2.02.71-3.73,2.13-5.12,1.42-1.39,3.69-2.09,6.81-2.09,1.22,0,2.31.09,3.25.27.95.19,1.9.49,2.85.91l.16.38c-.17.67-.3,1.28-.36,1.83-.07.55-.13,1.49-.19,2.83h-1.4c-.05-1.65-.13-2.58-.24-2.78-.21-.35-.72-.73-1.55-1.12-.83-.39-1.78-.58-2.85-.58-1.47,0-2.61.36-3.42,1.07-.81.71-1.21,1.63-1.21,2.76,0,.69.16,1.28.5,1.79.33.51.8.89,1.39,1.12.6.24,1.87.51,3.84.83,1.78.27,2.98.53,3.62.78,1.04.42,1.82,1.06,2.36,1.91.53.86.8,1.94.8,3.25,0,2.27-.86,4.16-2.6,5.67-1.74,1.51-4.12,2.26-7.13,2.26-1.34,0-2.55-.12-3.65-.38-1.09-.25-2.22-.68-3.39-1.27.19-.75.32-1.43.38-2.04.09-.84.14-1.99.14-3.42h0Zm18.97,6.8v-1.34c1.48-.08,2.31-.2,2.5-.37.2-.17.31-.6.36-1.28.07-1.41.11-4.05.11-7.91,0-1.48-.02-3.62-.06-6.43-.02-1.92-.06-2.97-.13-3.16-.06-.19-.18-.32-.34-.41-.23-.12-1.05-.23-2.44-.31v-1.35c2.21.09,3.9.13,5.06.13,2.02,0,3.84-.04,5.47-.13v1.35c-1.46.08-2.28.2-2.47.34-.18.14-.31.48-.36,1.01-.1,1.03-.14,3.11-.14,6.26,0,4.18.02,7.09.05,8.73.04,1.65.13,2.63.3,2.94.06.14.2.25.4.33.21.08.95.16,2.23.25v1.34l-1.9-.05c-1.2-.04-2.27-.06-3.21-.06l-5.42.11h0Zm17.17,0v-1.34c.61,0,1.25-.05,1.91-.16.31-.06.53-.14.66-.27.13-.12.23-.35.29-.68.08-.46.14-2.15.19-5.08.03-2.08.05-4.2.05-6.37,0-4.25-.01-6.42-.04-6.5-.03-.08-.4-.12-1.13-.12-1.49,0-2.77.05-3.84.13-.62.06-.97.11-1.06.16-.08.05-.14.14-.18.28-.05.13-.14,1.07-.27,2.82h-1.38c.02-2.04-.03-3.81-.18-5.29l.18-.13c3.37.15,6.66.23,9.86.23s6.74-.08,10.69-.23l.18.26c-.2,1.47-.35,3.18-.43,5.16h-1.34c-.1-1.79-.19-2.76-.29-2.91-.07-.12-.25-.2-.51-.24-.86-.14-2.56-.21-5.11-.21-.21,0-.34.03-.38.1-.05.08-.07.36-.07.85l-.1,10.81c0,3.13.03,5.06.08,5.77.05.71.19,1.14.38,1.29.14.1.98.21,2.52.34v1.34c-1.58-.08-3.25-.11-5.02-.11-2.32,0-4.21.03-5.66.11h0Zm17.47-1.46c1.01-.05,1.63-.16,1.87-.3.16-.11.41-.51.76-1.23.65-1.39,1.49-3.33,2.5-5.8l5.69-13.94h2.37l7.26,17.27c.94,2.24,1.52,3.46,1.74,3.68.22.21.9.36,2.04.44v1.34c-1.75-.08-3.4-.11-4.95-.11-1.85,0-3.62.03-5.29.11v-1.34c1.28-.05,2.01-.13,2.21-.22.2-.09.3-.25.3-.49,0-.2-.22-.9-.67-2.09l-1.06-2.75c-1.33-.02-2.81-.03-4.45-.03-1.43,0-2.72.01-3.89.03l-.71,1.85c-.19.51-.43,1.26-.71,2.26-.07.22-.1.42-.1.61,0,.25.1.42.31.52.21.1.96.21,2.26.32v1.34c-1.06-.08-2.36-.11-3.92-.11s-2.67.03-3.55.11v-1.46h0Zm10.54-15.58l-3.39,8.25c.98.06,2.07.08,3.26.08,1.25,0,2.44-.03,3.57-.08l-3.44-8.25h0Zm16.36,10.24h1.41c.01,1.58.06,2.52.16,2.79.09.27.4.63.92,1.08.53.45,1.21.8,2.05,1.08.84.27,1.69.42,2.57.42,1.51,0,2.72-.41,3.63-1.21.91-.8,1.36-1.81,1.36-3,0-1.1-.3-1.95-.91-2.55-.61-.59-1.76-1-3.47-1.25-2.53-.37-4.23-.76-5.12-1.19-.89-.42-1.59-1.07-2.09-1.93-.51-.86-.76-1.89-.76-3.09,0-2.02.71-3.73,2.13-5.12,1.42-1.39,3.69-2.09,6.81-2.09,1.22,0,2.31.09,3.25.27.95.19,1.9.49,2.85.91l.16.38c-.17.67-.3,1.28-.36,1.83-.07.55-.13,1.49-.19,2.83h-1.4c-.05-1.65-.13-2.58-.24-2.78-.21-.35-.72-.73-1.55-1.12-.83-.39-1.78-.58-2.85-.58-1.47,0-2.61.36-3.42,1.07-.81.71-1.21,1.63-1.21,2.76,0,.69.16,1.28.5,1.79.33.51.8.89,1.39,1.12.6.24,1.87.51,3.84.83,1.78.27,2.98.53,3.62.78,1.04.42,1.82,1.06,2.36,1.91.53.86.8,1.94.8,3.25,0,2.27-.86,4.16-2.6,5.67-1.74,1.51-4.12,2.26-7.13,2.26-1.34,0-2.55-.12-3.65-.38-1.09-.25-2.22-.68-3.39-1.27.19-.75.32-1.43.38-2.04.09-.84.14-1.99.14-3.42h0Zm29.55,6.83v-1.69c1.85-.09,2.9-.25,3.13-.46.24-.21.39-.74.44-1.59.09-1.77.14-5.07.14-9.89,0-1.85-.03-4.53-.08-8.04-.03-2.39-.08-3.71-.16-3.94-.08-.24-.22-.41-.43-.51-.29-.15-1.31-.27-3.05-.38v-1.69c2.76.11,4.87.16,6.33.16,2.52,0,4.8-.05,6.83-.16v1.69c-1.82.11-2.85.25-3.09.43-.23.19-.38.6-.45,1.26-.12,1.29-.18,3.9-.18,7.82,0,5.23.02,8.86.06,10.92.04,2.06.16,3.28.36,3.67.08.17.25.31.51.41.26.1,1.19.21,2.78.31v1.69l-2.37-.06c-1.5-.05-2.84-.08-4.02-.08l-6.77.14h0Zm16.87-6.83h1.41c.01,1.58.06,2.52.16,2.79.09.27.4.63.92,1.08.53.45,1.21.8,2.04,1.08.84.27,1.69.42,2.57.42,1.51,0,2.72-.41,3.63-1.21.91-.8,1.36-1.81,1.36-3,0-1.1-.3-1.95-.91-2.55-.61-.59-1.76-1-3.47-1.25-2.53-.37-4.23-.76-5.12-1.19-.89-.42-1.59-1.07-2.09-1.93-.51-.86-.76-1.89-.76-3.09,0-2.02.71-3.73,2.13-5.12,1.42-1.39,3.69-2.09,6.81-2.09,1.22,0,2.31.09,3.25.27.95.19,1.9.49,2.85.91l.16.38c-.17.67-.3,1.28-.36,1.83-.07.55-.13,1.49-.18,2.83h-1.4c-.05-1.65-.13-2.58-.24-2.78-.21-.35-.72-.73-1.55-1.12-.83-.39-1.78-.58-2.85-.58-1.47,0-2.61.36-3.42,1.07-.81.71-1.21,1.63-1.21,2.76,0,.69.16,1.28.5,1.79.33.51.8.89,1.39,1.12.6.24,1.87.51,3.84.83,1.78.27,2.98.53,3.62.78,1.04.42,1.82,1.06,2.36,1.91.53.86.8,1.94.8,3.25,0,2.27-.86,4.16-2.6,5.67-1.74,1.51-4.12,2.26-7.13,2.26-1.34,0-2.55-.12-3.65-.38-1.09-.25-2.22-.68-3.39-1.27.19-.75.32-1.43.38-2.04.09-.84.14-1.99.14-3.42h0Zm20,6.8v-.83c.59-.28,1.15-.61,1.67-.98.14-2.91.21-5.93.21-9.09,0-2.48-.03-4.81-.08-7.01-.03-1.56-.1-2.46-.23-2.7-.05-.14-.16-.25-.33-.32-.17-.07-.94-.16-2.34-.28v-1.35c2.07.05,3.99.08,5.76.08s3.34-.03,4.88-.08v1.35c-1.48.1-2.33.23-2.56.38-.14.1-.24.3-.3.59-.06.3-.11,2.02-.14,5.2l-.1,7.83c0,1.47.03,3.17.11,5.1,1.41.08,2.44.12,3.12.12,2.02,0,3.72-.16,5.11-.47.28-.97.55-2.14.82-3.49h1.41c-.24,1.54-.45,3.44-.63,5.71-1.02.15-1.95.23-2.81.23l-5.82-.06-2.61-.03c-1.2-.01-2.92.03-5.16.11h0Zm18.94-1.46c1.01-.05,1.63-.16,1.87-.3.16-.11.41-.51.75-1.23.65-1.39,1.49-3.33,2.5-5.8l5.69-13.94h2.37l7.27,17.27c.94,2.24,1.52,3.46,1.74,3.68.22.21.9.36,2.04.44v1.34c-1.75-.08-3.4-.11-4.95-.11-1.85,0-3.62.03-5.29.11v-1.34c1.28-.05,2.01-.13,2.21-.22.2-.09.3-.25.3-.49,0-.2-.22-.9-.67-2.09l-1.06-2.75c-1.33-.02-2.81-.03-4.45-.03-1.43,0-2.72.01-3.89.03l-.71,1.85c-.19.51-.43,1.26-.71,2.26-.07.22-.1.42-.1.61,0,.25.1.42.31.52.21.1.96.21,2.26.32v1.34c-1.06-.08-2.36-.11-3.92-.11s-2.68.03-3.55.11v-1.46h0Zm10.54-15.58l-3.39,8.25c.98.06,2.07.08,3.26.08,1.25,0,2.44-.03,3.57-.08l-3.44-8.25h0Zm15.07,17.06v-1.35l.96-.07c.78-.04,1.28-.17,1.47-.4.2-.23.31-.99.34-2.28.08-2.65.12-5.51.12-8.6,0-1.64-.01-3.5-.03-5.59-.02-1.27-.1-2.04-.23-2.32-.06-.14-.18-.25-.36-.34-.17-.09-.93-.18-2.28-.27v-1.35c1.3.03,2.56.05,3.81.05,1.45,0,2.84-.01,4.18-.05.58,1.37,1.17,2.71,1.8,4.05.44.95,2.39,5,5.84,12.13,3.64-7.33,6.19-12.72,7.65-16.19,1.29.05,2.51.08,3.67.08,1.36,0,2.68-.03,3.94-.08v1.35c-1.41.08-2.2.21-2.38.37-.18.16-.3.65-.35,1.48-.09,1.34-.13,3.92-.13,7.7,0,1.91.02,3.92.06,6.04.04,2.13.12,3.33.23,3.6.08.16.19.29.32.37.14.09.89.19,2.25.31v1.35c-1.74-.09-3.29-.13-4.64-.13s-3.24.04-5.6.13v-1.35l.95-.03c.76-.03,1.22-.14,1.41-.32.19-.17.31-.64.36-1.39.05-.76.08-2.54.08-5.35v-9.71c-1.65,3.31-3.76,7.65-6.32,13.02-1.05,2.21-1.87,4.01-2.46,5.41h-1.09c-.8-1.85-1.88-4.18-3.23-7l-5.56-11.43v2.18c0,6.05.03,10.21.1,12.49.03.93.15,1.49.37,1.71.21.21,1.01.35,2.39.42v1.35c-1.09-.09-2.19-.13-3.28-.13-1.63,0-3.08.04-4.36.13h0Zm43.57.01v-1.69c1.64-.06,2.59-.17,2.87-.32.19-.11.33-.28.43-.53.14-.32.24-1.45.28-3.4.08-3.22.12-5.64.12-7.27l-.04-8.51c0-2.25-.07-3.55-.22-3.9-.08-.2-.21-.35-.38-.44-.27-.16-1.29-.31-3.06-.47v-1.69c2.12.07,3.68.1,4.71.1,1.13,0,2.4-.03,3.84-.1,3.09,3.94,6.56,8.21,10.46,12.82,2.59,3.09,4.82,5.63,6.69,7.64v-7.96c0-3.01-.03-5.61-.12-7.79-.05-1.3-.16-2.1-.32-2.39-.08-.16-.23-.27-.45-.34-.21-.07-1.15-.16-2.81-.28v-1.69c1.46.07,2.92.1,4.36.1,1.98,0,3.78-.03,5.39-.1v1.69c-1.5.1-2.4.21-2.71.32-.18.07-.32.16-.43.28-.1.12-.19.27-.24.47-.1.32-.14,1.35-.16,3.09l-.06,8.04-.04,8.1c0,2.17.05,4.34.14,6.51l-.26.28c-1.62-.29-2.76-.49-3.44-.58-3.44-3.82-7.6-8.62-12.48-14.39-2.46-2.92-4.45-5.38-5.97-7.37v7.81c0,2.13.03,4.7.1,7.7.04,2.22.13,3.49.28,3.82.05.14.15.26.3.34.25.14,1.21.28,2.89.4v1.69c-2.17-.1-3.73-.14-4.66-.14-.78,0-2.45.05-5.01.14h0Zm35.14-.03v-.86c.57-.26,1.09-.56,1.56-.9.21-1.67.32-5.19.32-10.55,0-3.66-.04-6.08-.12-7.27-.03-.63-.14-1.04-.33-1.2-.18-.16-.98-.31-2.39-.43v-1.35c2.53.1,4.53.14,6,.14l8.86-.1c.93,0,1.77.04,2.52.12l.11.17c-.23,1.17-.41,2.72-.51,4.66h-1.27c-.05-1.56-.12-2.4-.19-2.51-.07-.1-.31-.21-.73-.3-.88-.19-2.25-.29-4.08-.29-.9,0-1.95.03-3.15.11-.14,3.31-.22,5.95-.24,7.91,1.15.08,2.22.12,3.23.12,1.49,0,2.38-.05,2.68-.14.19-.07.31-.23.38-.47.07-.2.14-.87.23-2.03h1.39c-.06,1.81-.08,2.99-.08,3.54l.08,3.61h-1.39c-.08-1.4-.17-2.21-.29-2.43-.06-.12-.21-.22-.43-.27-.54-.12-1.74-.17-3.62-.17-.59,0-1.28.03-2.07.1-.02.57-.04,1.15-.04,1.74,0,3.07.06,5.42.17,7.07l3.18.05c1.81,0,3.46-.1,4.97-.29.27-.99.53-2.11.77-3.36h1.33c-.25,1.89-.39,3.7-.43,5.43-.97.11-1.91.16-2.81.16-.59,0-1.76-.02-3.49-.07-1.62-.04-3.11-.06-4.47-.06-1.78,0-3.67.03-5.66.11h0Zm33.96-7.92v-1.3c1.96.04,3.7.06,5.23.06,1.41,0,2.94-.02,4.58-.06v1.03c-.47.15-.92.33-1.35.53-.13,1.08-.19,2.01-.19,2.77,0,.54.06,1.63.19,3.24-2.12.77-3.9,1.3-5.33,1.57-1.43.27-2.91.41-4.45.41-4.14,0-7.37-1.07-9.72-3.22-2.34-2.15-3.51-4.93-3.51-8.35s1.2-6.33,3.59-8.44c2.39-2.11,5.82-3.16,10.29-3.16,1.58,0,3.09.12,4.53.36,1.45.25,2.83.62,4.13,1.13l.14.24c-.31,1.36-.54,3.05-.69,5.08h-1.35c-.01-1.01-.08-1.91-.21-2.7-.69-.8-1.56-1.39-2.64-1.79-1.08-.39-2.35-.59-3.82-.59-2.76,0-4.95.84-6.59,2.5-1.63,1.67-2.45,3.97-2.45,6.87,0,3.1.86,5.59,2.58,7.48,1.72,1.89,3.84,2.84,6.36,2.84,1.34,0,2.77-.33,4.27-.98.09-.82.13-1.61.13-2.35,0-1.65-.1-2.57-.29-2.74-.19-.17-1.34-.32-3.44-.43h0Zm13.58,7.92v-.86c.57-.26,1.09-.56,1.56-.9.21-1.67.32-5.19.32-10.55,0-3.66-.04-6.08-.12-7.27-.03-.63-.14-1.04-.33-1.2-.18-.16-.98-.31-2.39-.43v-1.35c2.53.1,4.53.14,6,.14l8.86-.1c.93,0,1.77.04,2.52.12l.11.17c-.23,1.17-.4,2.72-.51,4.66h-1.27c-.05-1.56-.12-2.4-.18-2.51-.07-.1-.31-.21-.73-.3-.88-.19-2.25-.29-4.08-.29-.9,0-1.95.03-3.15.11-.14,3.31-.22,5.95-.24,7.91,1.15.08,2.22.12,3.23.12,1.49,0,2.38-.05,2.68-.14.19-.07.31-.23.38-.47.07-.2.14-.87.23-2.03h1.39c-.06,1.81-.08,2.99-.08,3.54l.08,3.61h-1.39c-.08-1.4-.17-2.21-.29-2.43-.06-.12-.21-.22-.43-.27-.54-.12-1.74-.17-3.62-.17-.59,0-1.28.03-2.07.1-.02.57-.04,1.15-.04,1.74,0,3.07.06,5.42.17,7.07l3.18.05c1.81,0,3.46-.1,4.97-.29.27-.99.53-2.11.78-3.36h1.33c-.25,1.89-.39,3.7-.43,5.43-.97.11-1.91.16-2.81.16-.59,0-1.76-.02-3.49-.07-1.62-.04-3.11-.06-4.47-.06-1.78,0-3.67.03-5.66.11h0Zm19.06,0v-1.34c1.24-.11,1.95-.21,2.13-.31.12-.06.21-.16.26-.31.11-.25.19-1.12.23-2.6.06-2.3.08-4.1.08-5.42,0-1.78-.03-4.04-.07-6.79-.04-2.05-.14-3.3-.3-3.77-.05-.14-.13-.25-.26-.32-.17-.11-.87-.23-2.07-.36v-1.35c2.22.09,3.65.13,4.29.13l8.05-.14c1.74,0,3.02.17,3.81.51.8.34,1.43.88,1.9,1.62.47.75.7,1.63.7,2.63,0,1.28-.37,2.41-1.12,3.38-.75.97-2.04,1.83-3.88,2.58l3.42,5.16,2.67,3.96c.51.64.88,1.03,1.13,1.17.25.13.65.21,1.21.22v1.23h-.95c-2.72.03-4.47.07-5.26.11-.93-1.49-2.33-3.65-4.18-6.48l-3.31-5.04c.1-.18.18-.37.24-.58.43.06.75.08.95.08.99,0,1.98-.41,2.94-1.21.96-.8,1.45-1.96,1.45-3.44,0-1.3-.38-2.31-1.15-3.02-.76-.72-1.9-1.08-3.42-1.08-.48,0-1.14.03-1.96.11l-.11,4.74-.15,6.02c0,1.36.05,3.1.16,5.23.08,1.6.17,2.49.25,2.68.07.14.18.25.36.34.23.13.95.23,2.19.3v1.34c-1.93-.08-3.64-.11-5.13-.11-1.58,0-3.29.03-5.11.11h0Zm23.78,0v-1.34c1.48-.08,2.31-.2,2.5-.37.2-.17.31-.6.36-1.28.07-1.41.11-4.05.11-7.91,0-1.48-.02-3.62-.06-6.43-.02-1.92-.06-2.97-.13-3.16-.06-.19-.18-.32-.34-.41-.23-.12-1.05-.23-2.44-.31v-1.35c2.21.09,3.9.13,5.06.13,2.02,0,3.84-.04,5.47-.13v1.35c-1.46.08-2.28.2-2.47.34-.18.14-.31.48-.36,1.01-.1,1.03-.14,3.11-.14,6.26,0,4.18.02,7.09.05,8.73.04,1.65.13,2.63.3,2.94.06.14.2.25.4.33.21.08.95.16,2.23.25v1.34l-1.9-.05c-1.2-.04-2.27-.06-3.21-.06l-5.42.11h0Zm-246.47-201.8c6.2,0,11.26,5.06,11.26,11.26s-5.06,11.26-11.26,11.26-11.26-5.06-11.26-11.26,5.06-11.26,11.26-11.26h0Zm-11.26,42.1c0-6.22,5.04-11.26,11.26-11.26s11.26,5.04,11.26,11.26v84.57c0,6.22-5.04,11.26-11.26,11.26s-11.26-5.04-11.26-11.26v-84.57h0Zm103.15-11.26c31.77,0,58.11,26.34,58.11,58.11v37.72c0,6.22-5.04,11.26-11.26,11.26s-11.26-5.04-11.26-11.26v-37.72c0-19.42-16.17-35.59-35.59-35.59s-35.59,16.17-35.59,35.59v37.72c0,6.22-5.04,11.26-11.26,11.26s-11.26-5.04-11.26-11.26v-37.72c0-31.77,26.35-58.11,58.11-58.11Z"/>
  <path class="cls-1" d="m539.91,560.9c-22.78-11.62-44.63-27.7-64.68-47.54-20.05,19.84-41.9,35.92-64.68,47.54-13.55-20.89-24.22-45-31.65-71.37l57.51-99.62,38.81,104.39,38.81-104.39,57.52,99.62c-7.43,26.37-18.09,50.48-31.65,71.37h0Zm-163.76-72.95l57.52-99.63-109.81,18.58,70.99-85.8h-115.03c-19.12,19.62-34.67,40.91-45.99,63.09,21.45,13.92,46.31,24.8,73.51,32.24-7.15,27.28-10.16,54.24-8.83,79.79,24.87,1.29,51.08-1.52,77.63-8.27h0Zm-96.33-170.02c-19.12-19.62-34.67-40.91-45.98-63.09,21.46-13.92,46.31-24.8,73.51-32.24-7.15-27.29-10.16-54.25-8.83-79.79,24.87-1.29,51.08,1.52,77.63,8.28l57.52,99.62-109.81-18.58,71,85.8h-115.04Zm99.08-168.43l57.51,99.62,38.81-104.39,38.81,104.38,57.51-99.62c-7.42-26.37-18.09-50.48-31.64-71.37-22.78,11.62-44.63,27.7-64.68,47.54-20.05-19.84-41.9-35.92-64.68-47.54-13.55,20.89-24.22,45-31.65,71.38h0Zm195.4,1.58c26.55-6.75,52.76-9.57,77.63-8.28,1.33,25.54-1.68,52.5-8.83,79.79,27.21,7.45,52.06,18.32,73.51,32.24-11.31,22.18-26.86,43.48-45.98,63.09h-115.04l70.99-85.8-109.81,18.58,57.52-99.62h0Zm96.33,170.02h-115.03l71,85.8-109.81-18.58,57.52,99.63c26.55,6.75,52.76,9.57,77.63,8.27,1.33-25.54-1.68-52.5-8.83-79.78,27.21-7.45,52.06-18.33,73.51-32.25-11.32-22.18-26.86-43.48-45.99-63.09Z"/>
</svg>